PathFileType	4	(X/Y/Z)	6_coords_data.trc
DataRate	CameraRate	NumFrames	NumMarkers	Units	OrigDataRate	OrigDataStartFrame	OrigNumFrames
30.0	30.0	9	21	m	30.0	45	55
Frame#	Time	THUMB_TIP	THUMB_IP	THUMB_MCP	THUMB_CMC	INDEX_TIP	INDEX_DIP	INDEX_PIP	INDEX_MCP	MIDDLE_TIP	MIDDLE_DIP	MIDDLE_PIP	MIDDLE_MCP	RING_TIP	RING_DIP	RING_PIP	RING_MCP	PINKY_TIP	PINKY_DIP	PINKY_PIP	PINKY_MCP	WRIST
X1	Y1	Z1	X2	Y2	Z2	X3	Y3	Z3	X4	Y4	Z4	X5	Y5	Z5	X6	Y6	Z6	X7	Y7	Z7	X8	Y8	Z8	X9	Y9	Z9	X10	Y10	Z10	X11	Y11	Z11	X12	Y12	Z12	X13	Y13	Z13	X14	Y14	Z14	X15	Y15	Z15	X16	Y16	Z16	X17	Y17	Z17	X18	Y18	Z18	X19	Y19	Z19	X20	Y20	Z20	X21	Y21	Z21
44	1.4666666666666666	0.07012470245361328	-0.11977200317382812	1.0243599853515626	0.054786300659179686	-0.10206199645996093	1.0406500244140624	0.03261489868164062	-0.09570580291748047	1.0653299560546876	0.013945500373840332	-0.0689126968383789	1.079530029296875	0.06704910278320313	-0.10404100036621093	0.9652349853515625	0.04846889877319336	-0.1046439971923828	0.9787689819335937	0.029488000869750976	-0.10395600128173828	0.9952630004882812	0.005111660003662109	-0.09788790130615234	1.0276700439453126	0.07746949768066407	-0.07755680084228515	0.95977001953125	0.05582260131835937	-0.07837359619140626	0.970385009765625	0.028912799835205078	-0.07851399993896484	0.9867360229492188	-0.00038960999250411905	-0.07471700286865235	1.0182999877929688	0.07656529998779296	-0.050972599029541016	0.9621160278320312	0.056745098114013674	-0.05070009994506836	0.9737620239257813	0.03231420135498047	-0.05115700149536133	0.9905460205078125	0.002587820053100586	-0.051593101501464844	1.02077001953125	0.06698750305175781	-0.027447099685668944	0.9892210083007813	0.04896080017089844	-0.026514200210571288	0.9977449951171875	0.031192100524902344	-0.0269950008392334	1.0076599731445313	0.008046330451965332	-0.031082199096679686	1.0279000244140626	-0.018865800857543944	-0.046460098266601565	1.0962099609375
45	1.5	0.07131069946289062	-0.11693699645996093	1.0236900024414062	0.05542839813232422	-0.10007399749755859	1.0405899658203126	0.03338359832763672	-0.09460359954833984	1.0651300048828125	0.014315099716186523	-0.0682136001586914	1.0793900146484374	0.06804979705810547	-0.10223699951171875	0.9654409790039062	0.04920859909057617	-0.10312200164794921	0.9786929931640626	0.029963600158691407	-0.10284100341796874	0.9950479736328125	0.0052428898811340335	-0.09718209838867188	1.027469970703125	0.0779113998413086	-0.0759635009765625	0.959864013671875	0.05615019989013672	-0.07703669738769531	0.9703369750976563	0.029116600036621094	-0.0774489974975586	0.9865479736328125	-0.00027485299110412603	-0.07397489929199219	1.0180499877929687	0.07688359832763672	-0.049565299987792966	0.9623040161132812	0.05710770034790039	-0.04945750045776367	0.9738300170898437	0.032610698699951174	-0.05011880111694336	0.9904739990234375	0.0024353001117706297	-0.05087820053100586	1.0208099975585938	0.06685169982910157	-0.027592199325561523	0.9887119750976563	0.0488120002746582	-0.02644729995727539	0.9973060302734374	0.031125699996948242	-0.026771499633789064	1.0074600219726562	0.008032150268554687	-0.030383399963378906	1.027989990234375	-0.01862929916381836	-0.04595029830932617	1.096219970703125
46	1.5333333333333334	0.07234809875488281	-0.11489700317382813	1.023260009765625	0.05605059814453125	-0.09857109832763672	1.04018994140625	0.03401110076904297	-0.09379109954833985	1.0650799560546875	0.014674599647521974	-0.06757939910888672	1.079239990234375	0.06774120330810547	-0.10143900299072266	0.9652249755859375	0.04895289993286133	-0.10251100158691406	0.9784349975585938	0.02977549934387207	-0.10231999969482422	0.9948629760742187	0.005155789852142334	-0.09685359954833984	1.0274100341796875	0.07758930206298828	-0.07541179656982422	0.9598250122070312	0.05592179870605469	-0.07657679748535157	0.9700640258789063	0.028900400161743164	-0.07711119842529297	0.9864500122070312	-0.0006844840049743651	-0.0738062973022461	1.0181400146484374	0.07647720336914063	-0.049703800201416015	0.9619169921875	0.05675019836425781	-0.04956259918212891	0.97356201171875	0.03231290054321289	-0.05010950088500977	0.9903660278320312	0.00204967999458313	-0.050582000732421875	1.0205999755859374	0.06609500122070312	-0.028885000228881835	0.9873469848632812	0.04825040054321289	-0.027385099411010742	0.996291015625	0.030755800247192384	-0.027354299545288088	1.0067000122070313	0.007794529914855957	-0.030132099151611327	1.0275899658203125	-0.018216600418090822	-0.045513599395751954	1.09618994140625
47	1.5666666666666667	0.07277239990234376	-0.11303500366210938	1.0226099853515624	0.056522098541259766	-0.09720870208740234	1.0391300048828125	0.0344567985534668	-0.09294940185546875	1.064760009765625	0.015024499893188476	-0.06709130096435546	1.0791300048828125	0.06729309844970703	-0.10080100250244141	0.9649459838867187	0.0485792007446289	-0.10198400115966796	0.97818701171875	0.029455900192260742	-0.10199400329589844	0.99456298828125	0.004994999885559082	-0.09662750244140625	1.027280029296875	0.07721869659423829	-0.07500039672851562	0.9597470092773438	0.055581600189208984	-0.07625140380859376	0.9700640258789063	0.028459699630737304	-0.07690339660644531	0.9863109741210937	-0.0010146600008010859	-0.07359300231933594	1.0181199951171875	0.07603299713134766	-0.05006639862060547	0.9617620239257813	0.05626559829711914	-0.04981840133666992	0.9733280029296875	0.03185580062866211	-0.05025659942626953	0.990177001953125	0.0017037500143051141	-0.050419300079345704	1.0203900146484375	0.06514479827880859	-0.029731399536132814	0.9860809936523437	0.04745859909057617	-0.027949499130249023	0.995385009765625	0.030051900863647462	-0.02767259979248047	1.00602001953125	0.007419929981231689	-0.029951200485229493	1.0274200439453125	-0.017809900283813476	-0.0451781005859375	1.0961800537109374
48	1.6	0.07319259643554688	-0.1117969970703125	1.0214400024414063	0.05634049987792969	-0.09644210052490235	1.0386800537109375	0.03478630065917969	-0.09242579650878906	1.0640899658203125	0.015168999671936035	-0.06669640350341798	1.078739990234375	0.0673384017944336	-0.09986039733886719	0.9646950073242188	0.04848630142211914	-0.10123300170898437	0.977781982421875	0.029209299087524412	-0.10139299774169921	0.9940709838867188	0.004757359981536865	-0.09630380249023437	1.02697998046875	0.0771355972290039	-0.07421240234375	0.959677001953125	0.05548410034179688	-0.07555870056152343	0.9698309936523437	0.028382699966430665	-0.07637100219726563	0.986	-0.0012351599931716918	-0.07319229888916015	1.017469970703125	0.07562110137939453	-0.04949319839477539	0.9614000244140625	0.05587670135498047	-0.04937749862670898	0.9729400024414062	0.03151409912109375	-0.04986149978637695	0.98981298828125	0.0011975400447845458	-0.05004570007324219	1.0200999755859375	0.06433470153808593	-0.029724199295043944	0.9850440063476562	0.046730201721191404	-0.027866600036621093	0.9945469970703125	0.029450599670410155	-0.02753380012512207	1.0055900268554687	0.007197529792785644	-0.029623500823974608	1.0270899658203125	-0.017562999725341796	-0.04487969970703125	1.0960799560546874
49	1.6333333333333333	0.0734540023803711	-0.11042099761962891	1.0205499877929687	0.05681439971923828	-0.0953895034790039	1.0376099853515626	0.035157699584960934	-0.09199099731445312	1.06343994140625	0.015386699676513672	-0.06636959838867187	1.07827001953125	0.067372802734375	-0.09834980010986329	0.9642789916992187	0.048484798431396484	-0.10004199981689453	0.9771849975585938	0.029211999893188477	-0.10051599884033204	0.9934849853515625	0.004702099800109863	-0.0958280029296875	1.0263599853515626	0.07664129638671875	-0.07294400024414062	0.9589719848632813	0.05501319885253906	-0.07451290130615235	0.9692039794921875	0.027953699111938478	-0.0755636978149414	0.9855800170898438	-0.001555529952049255	-0.07271540069580078	1.01697998046875	0.07477799987792969	-0.04831890106201172	0.9604929809570313	0.05511199951171875	-0.04839009857177735	0.9721539916992188	0.03092210006713867	-0.04909669876098633	0.9891599731445313	0.000946635007858276	-0.04958150100708008	1.0196900024414062	0.06336550140380859	-0.02896500015258789	0.9840380249023437	0.045857200622558596	-0.027190500259399415	0.9936900024414063	0.028794200897216796	-0.02697249984741211	1.0048200073242188	0.006893899917602539	-0.029187400817871093	1.0266800537109375	-0.017361400604248046	-0.04475709915161133	1.0958800048828126
50	1.6666666666666667	0.07370390319824219	-0.10876399993896485	1.019510009765625	0.056979301452636716	-0.09408920288085937	1.0368199462890626	0.035389801025390626	-0.09106529998779297	1.0629300537109374	0.015373100280761718	-0.06572760009765626	1.0778699951171875	0.06711579895019532	-0.09728109741210937	0.9634920043945312	0.048149898529052736	-0.09917489624023437	0.9765	0.02893190002441406	-0.09984539794921875	0.9928049926757813	0.004592710018157959	-0.09536689758300781	1.0261400146484374	0.07587010192871094	-0.07193229675292968	0.9579580078125	0.0542047004699707	-0.0736802978515625	0.9684140014648438	0.027354000091552734	-0.07490969848632813	0.9849829711914062	-0.001996449947357177	-0.07247940063476563	1.0169299926757813	0.07360970306396485	-0.04708670043945312	0.9592930297851563	0.05404029846191406	-0.04735689926147461	0.9712789916992187	0.02997690010070801	-0.04831869888305664	0.9885579833984375	0.00033044201135635305	-0.04923220062255859	1.019280029296875	0.062385601043701173	-0.027960899353027344	0.9831389770507812	0.044955001831054685	-0.026316200256347656	0.9929290161132812	0.028058000564575195	-0.026284400939941405	1.00425	0.006341660022735595	-0.028751699447631836	1.02631005859375	-0.01734429931640625	-0.04448619842529297	1.095760009765625
51	1.7	0.07377200317382812	-0.10745099639892577	1.0186099853515624	0.05699459838867187	-0.09319090270996094	1.0360899658203124	0.03535820007324219	-0.09036900329589843	1.06247998046875	0.015551199913024902	-0.06535590362548828	1.0773399658203124	0.0663760986328125	-0.09645539855957032	0.9628330078125	0.04767190170288086	-0.09847550201416015	0.9758679809570312	0.028713499069213867	-0.0992729034423828	0.9922310180664062	0.0044545001983642574	-0.09491400146484374	1.02577001953125	0.07545680236816406	-0.07106770324707032	0.95760400390625	0.05394340133666992	-0.07291390228271484	0.9680469970703125	0.02711520004272461	-0.07425440216064454	0.9844970092773437	-0.002408750057220459	-0.07198480224609374	1.0166400146484376	0.07298439788818359	-0.04627059936523437	0.9586840209960937	0.05339450073242188	-0.046633701324462894	0.9707119750976563	0.029529499053955077	-0.04771070098876953	0.98802197265625	0.00011041399836540202	-0.04874819946289063	1.0190999755859376	0.06182350158691406	-0.026849300384521484	0.9826729736328125	0.04438759994506836	-0.02545199966430664	0.9925650024414062	0.02744650077819824	-0.02553809928894043	1.003989990234375	0.005994249820709228	-0.028315799713134766	1.026030029296875	-0.017224000930786132	-0.044180999755859374	1.09568994140625
52	1.7333333333333334	0.07360140228271485	-0.1069800033569336	1.017989990234375	0.05675009918212891	-0.092722900390625	1.0356500244140625	0.03538629913330078	-0.0901718978881836	1.0620899658203125	0.01536579990386963	-0.06503130340576171	1.0771300048828125	0.06625900268554688	-0.09563899993896484	0.9625869750976562	0.04754019927978516	-0.09777610015869141	0.9755	0.028361900329589844	-0.09864710235595703	0.9918920288085937	0.004332650184631348	-0.09436009979248047	1.0255899658203125	0.07543579864501954	-0.07024349975585938	0.95760400390625	0.05378210067749024	-0.07213980102539062	0.9678489990234375	0.02695240020751953	-0.07356390380859375	0.9843209838867187	-0.002579910039901733	-0.07147570037841797	1.0165800170898438	0.07262470245361329	-0.045563301086425784	0.9583989868164062	0.053101200103759766	-0.04595890045166016	0.9704320068359376	0.029223499298095704	-0.04706999969482422	0.9878049926757813	-0.00010105899721384001	-0.04822990036010742	1.0188800048828126	0.06155120086669922	-0.02589699935913086	0.9826170043945313	0.044101200103759765	-0.024550899505615235	0.9924609985351562	0.02713100051879883	-0.024746799468994142	1.0039000244140626	0.005732419967651367	-0.027818700790405274	1.026010009765625	-0.017038000106811522	-0.04390700149536133	1.09552001953125
